<svg xmlns="http://www.w3.org/2000/svg" width="24" height="24" viewBox="0 0 24 24">
  <defs>
    <style>.a{fill:#444546;}</style>
  </defs>
  <path class="a" d="M59.683,52.683l-3.912-3.912a12.1,12.1,0,0,0-5.563,4.306h9.311a.231.231,0,0,0,.163-.394Zm-4.778,2.24H49.131a11.962,11.962,0,0,0-.932,7.263l6.869-6.869a.231.231,0,0,0-.163-.394Zm10.17-.016V49.128a11.99,11.99,0,0,0-7.263-.928l6.869,6.869a.231.231,0,0,0,.394-.163ZM71.8,57.813l-6.869,6.869a.231.231,0,0,0,.163.394h5.774A11.962,11.962,0,0,0,71.8,57.813Zm-4.482,1.872,3.913-3.913A12.062,12.062,0,0,0,66.921,50.2v9.318a.231.231,0,0,0,.394.163Zm-9.3,5.263a.462.462,0,0,0,.32.129H61.78a.462.462,0,0,0,.329-.138l2.837-2.885a.462.462,0,0,0,.133-.324l0-3.508a.461.461,0,0,0-.137-.328l-2.885-2.841a.462.462,0,0,0-.325-.133l-3.51,0a.461.461,0,0,0-.328.137l-2.841,2.885a.462.462,0,0,0-.133.325l0,3.507a.461.461,0,0,0,.141.332Zm2.295,2.369,3.912,3.912a12.1,12.1,0,0,0,5.563-4.306H60.476a.231.231,0,0,0-.163.394Zm-5.392-2.224v5.778a11.99,11.99,0,0,0,7.263.928L55.316,64.93a.231.231,0,0,0-.394.163Zm-2.24-4.778-3.913,3.913A12.063,12.063,0,0,0,53.075,69.8V60.478a.231.231,0,0,0-.394-.163Z" transform="translate(-47.998 -48)"/>
</svg>