<svg xmlns="http://www.w3.org/2000/svg" width="28" height="26" viewBox="0 0 28 26">
  <defs>
    <!-- <style>.a{fill:#acafb1;}</style> -->
  </defs>
  <g transform="translate(-4673.302 1245.76)">
    <path class="a" d="M4720.293-1231.173l-5.621,3.237v-.944a3.36,3.36,0,0,0-3.36-3.36h-8.94l13.185,13.186,4.73,2.724c1.069.616,1.944.11,1.944-1.124v-12.594C4722.233-1231.282,4721.361-1231.786,4720.293-1231.173Z" transform="translate(-20.931 -9.735)"/>
    <path class="a" d="M4693.62-1227.335h0l-2.631-2.636-15.528-15.556a.8.8,0,0,0-1.126,0l-.089.089a.8.8,0,0,0,0,1.128l2.342,2.346a3.362,3.362,0,0,0-3.285,3.362v10.378a3.363,3.363,0,0,0,3.36,3.366h13.72a3.334,3.334,0,0,0,2.333-.95l5.8,5.814a.8.8,0,0,0,1.126,0l.089-.089a.8.8,0,0,0,0-1.128Z" transform="translate(0 0)"/>
  </g>
</svg>