<svg xmlns="http://www.w3.org/2000/svg" width="18" height="28" viewBox="0 0 18 28"><defs><style>.a{fill:#444546;}</style></defs><g transform="translate(0 0)"><path class="a" d="M4850.939-1113.432h0a5.111,5.111,0,0,0,5.281-4.921v-9.415a5.111,5.111,0,0,0-5.281-4.921h0a5.112,5.112,0,0,0-5.283,4.921v9.415A5.112,5.112,0,0,0,4850.939-1113.432Z" transform="translate(-4841.912 1132.689)"/><path class="a" d="M4894.255-1098.335h0Z" transform="translate(-4877.076 1107.522)"/><path class="a" d="M4848.507-1098.331a.853.853,0,0,0-.836.849v4.495a7.275,7.275,0,0,1-7.3,7.233h-.055a7.275,7.275,0,0,1-7.3-7.233v-4.495a.853.853,0,0,0-.836-.849.853.853,0,0,0-.835.85v4.5a8.974,8.974,0,0,0,8.137,8.9v3.1h-3.453s-.856.347-.856.816a.842.842,0,0,0,.856.842h8.632a.843.843,0,0,0,.857-.842c0-.469-.857-.816-.857-.816h-3.452v-3.1a8.973,8.973,0,0,0,8.136-8.9v-4.5A.853.853,0,0,0,4848.507-1098.331Z" transform="translate(-4831.342 1107.318)"/><path class="a" d="M4834.332-1098.335h0Z" transform="translate(-4833.55 1107.522)"/></g></svg>