<svg xmlns="http://www.w3.org/2000/svg" width="28" height="10.801" viewBox="0 0 28 10.801"><defs><style>.a{fill:#fff;}</style></defs><path class="a" d="M4953.748-1217.962a10.169,10.169,0,0,1,4.35-2.062,24.963,24.963,0,0,1,5.558-.585,61.909,61.909,0,0,1,6.786.167,15.653,15.653,0,0,1,5.228,1.347,7.5,7.5,0,0,1,2.741,2.151,6.129,6.129,0,0,1,1.2,3.8,8.4,8.4,0,0,1-.19,1.656,1.732,1.732,0,0,1-1.315,1.379,6.836,6.836,0,0,1-4.541-.228,1.263,1.263,0,0,1-.845-.969c-.105-.556-.193-1.115-.3-1.673-.093-.494-.173-.991-.3-1.474a1.127,1.127,0,0,0-.979-.887c-1.149-.146-2.3-.326-3.46-.4a35.777,35.777,0,0,0-6.3.141c-.463.054-.918.15-1.377.24a1.064,1.064,0,0,0-.852.77,13.043,13.043,0,0,0-.314,1.314c-.111.617-.208,1.233-.314,1.84a1.379,1.379,0,0,1-.955,1.076,7,7,0,0,1-4.363.208,1.886,1.886,0,0,1-1.457-1.575,6.473,6.473,0,0,1,1.449-5.721A7.3,7.3,0,0,1,4953.748-1217.962Z" transform="translate(-4951.614 1220.624)"/></svg>