<svg xmlns="http://www.w3.org/2000/svg" width="100" height="99.997" viewBox="0 0 100 99.997"><defs><style>.a{fill:#858788;}</style></defs><g transform="translate(-565.629 -535.44)"><path class="a" d="M585.472,567.636a16.027,16.027,0,1,0-16.026-16.029A16.09,16.09,0,0,0,585.472,567.636Zm0-28.558a12.529,12.529,0,1,1-12.526,12.529A12.572,12.572,0,0,1,585.472,539.078Z" transform="translate(8.373 0.309)"/><path class="a" d="M659.421,623.25h-16.7V594.58A22.917,22.917,0,0,0,661,572.008v-6.774a6.1,6.1,0,0,0-12.19,0v6.774a10.814,10.814,0,0,1-6.093,9.706V541.534a6.1,6.1,0,0,0-12.19,0v50.223a10.81,10.81,0,0,1-5.3-9.252V573.7a6.1,6.1,0,0,0-12.19,0v8.805a22.989,22.989,0,0,0,17.607,22.346v18.4H617.1s-5.982,0-5.982-8.917l-33.863-.115c0,9.032-6.544,9.032-6.544,9.032h1.016a6.094,6.094,0,1,0,0,12.187h87.81a6.068,6.068,0,0,0,6.093-6.093A6.24,6.24,0,0,0,659.421,623.25Z" transform="translate(0 0)"/><path class="a" d="M579.812,553.736a7.788,7.788,0,1,0-7.786-7.789A7.79,7.79,0,0,0,579.812,553.736Z" transform="translate(14.033 5.969)"/></g></svg>